<?xml version="1.0" encoding="UTF-8"?>
<!DOCTYPE svg PUBLIC "-//W3C//DTD SVG 1.1//EN" "http://www.w3.org/Graphics/SVG/1.1/DTD/svg11.dtd">
<!-- Creator: CorelDRAW X6 -->
<svg xmlns="http://www.w3.org/2000/svg" xml:space="preserve" width="12.25in" height="9.91666in" version="1.1" style="shape-rendering:geometricPrecision; text-rendering:geometricPrecision; image-rendering:optimizeQuality; fill-rule:evenodd; clip-rule:evenodd"
viewBox="0 0 12250 9917"
 xmlns:xlink="http://www.w3.org/1999/xlink">
 <defs>
  <style type="text/css">
   <![CDATA[
    .fil0 {fill:#AD8D3E;fill-rule:nonzero}
   ]]>
  </style>
 </defs>
 <g id="Layer_x0020_1">
  <metadata id="CorelCorpID_0Corel-Layer"/>
  <path class="fil0" d="M8880 7454l-125 335 -787 2065 45 0 366 -961 791 0 366 961 304 0 -912 -2400 -49 0zm-103 398l380 997 -760 0 380 -997zm-5359 -398l-125 335 -787 2065 45 0 366 -961 791 0 366 961 304 0 -912 -2400 -49 0zm-103 398l380 997 -760 0 380 -997zm8652 2002l282 0 0 -2337 -282 0 0 2337zm-1274 0l282 0 0 -2337 -282 0 0 2337zm-2994 -2337l-764 2007 -760 -2007 -304 0 277 733 -483 1274 -760 -2007 -304 0 912 2400 49 0 125 -335 483 -1274 612 1609 49 0 125 -335 787 -2065 -45 0zm-6328 0l0 1131 -1090 0 0 -1131 -282 0 0 2337 282 0 0 -1162 1090 0 0 1162 282 0 0 -2337 -282 0z"/>
  <polygon class="fil0" points="6092,-8 6092,1581 5840,14 5775,25 6042,1686 5449,186 5387,211 6002,1766 5021,464 4968,504 5941,1794 4888,944 4846,995 6092,2001 6092,3277 6158,3277 6158,2001 7404,995 7362,944 6309,1794 7282,504 7229,464 6248,1766 6863,211 6802,186 6208,1687 6475,25 6410,14 6158,1580 6158,-8 "/>
  <path class="fil0" d="M5437 2430c3,79 -54,153 -116,153 -86,0 -120,-81 -120,-188 0,-79 32,-176 117,-176 86,0 115,85 119,210zm91 95c0,-229 -89,-324 -208,-324 -125,0 -203,94 -203,221 0,132 88,196 175,196 64,0 121,-36 150,-88 -10,258 -65,344 -163,344 -43,0 -84,-23 -100,-56 -4,-7 -1,-16 5,-21 9,-10 24,-28 40,-54 14,-23 5,-57 -21,-67 -27,-11 -56,11 -64,34 -33,92 20,185 142,185 141,0 249,-136 249,-370zm-588 361c19,0 17,-21 0,-21 -15,0 -33,0 -55,-4 -35,-6 -39,-25 -39,-97l0 -227c0,-128 3,-299 11,-320l-19 -17c-33,20 -130,67 -186,83 -14,4 -7,36 6,29 21,-11 47,-20 63,-26 29,-13 39,8 39,98l0 339c0,110 -5,130 -51,137 -25,4 -42,5 -63,5 -12,0 -12,21 0,21 36,0 112,-2 158,-2 46,0 89,2 136,2z"/>
  <path class="fil0" d="M7535 2720c0,72 -43,154 -141,154 -87,0 -144,-80 -144,-162 0,-81 50,-140 105,-170 12,7 23,12 37,19 90,43 142,94 142,159zm3 -370c0,54 -27,112 -91,142 -71,-29 -141,-75 -141,-151 0,-70 48,-120 121,-120 66,0 110,64 110,130zm75 346c0,-94 -60,-157 -136,-192 78,-36 104,-96 104,-158 0,-77 -57,-146 -165,-146 -132,0 -184,88 -184,169 0,67 31,116 103,161 -79,29 -133,93 -133,179 0,115 66,188 199,188 132,0 211,-89 211,-201zm-545 -477c10,-9 -3,-25 -13,-17 -25,20 -61,41 -97,41 -36,0 -70,-6 -129,-22 -63,-18 -111,-23 -138,-19 -23,4 -46,149 -52,181 -3,14 17,16 19,3 4,-22 10,-51 22,-75 15,-28 71,-16 110,-5 59,17 129,36 172,16 -73,82 -228,353 -207,526 5,40 21,60 58,54 43,-7 49,-36 43,-86 -23,-162 -21,-244 57,-383 33,-61 130,-189 154,-214z"/>
  <path class="fil0" d="M10853 6027c92,-163 35,-273 -104,-447 -102,-127 -119,-210 -73,-291 45,-80 152,-119 268,-53 121,69 128,164 69,329 -6,17 16,30 26,15 41,-63 70,-114 115,-185 15,-24 14,-32 -35,-72 -28,-23 -104,-85 -176,-125 -124,-70 -292,-63 -386,104 -71,125 -63,228 85,417 99,127 131,205 77,300 -67,119 -183,140 -303,72 -120,-68 -145,-182 -81,-354 9,-26 -18,-41 -31,-18 -33,62 -68,136 -105,208 -10,20 -5,30 28,66 20,22 79,79 188,141 157,89 340,68 439,-105zm-823 -550c27,10 34,-23 11,-31 -41,-15 -149,-43 -171,-51 -21,-8 -122,-47 -199,-76 -23,-8 -32,19 -10,27 30,11 103,47 114,65 10,16 -36,142 -56,197 -22,59 -181,86 -307,40 -230,-83 -260,-339 -165,-600 95,-262 300,-421 537,-335 202,73 246,241 217,408 -4,19 21,30 28,12 36,-95 82,-199 125,-279 10,-17 -12,-36 -28,-15 -16,21 -46,12 -79,-15 -40,-32 -132,-97 -253,-142 -303,-110 -587,13 -697,315 -114,315 21,579 310,684 102,37 215,32 293,33 78,1 123,3 138,-7 13,-10 48,-136 70,-198 8,-21 18,-40 36,-47 17,-8 61,4 86,14zm-1174 -1037c16,3 24,-29 6,-32 -56,-11 -148,-26 -192,-34 -44,-9 -99,-19 -152,-29 -16,-3 -23,25 -6,29 17,5 33,10 63,20 62,21 71,69 51,172l-107 551c-7,-43 -435,-837 -453,-855 -17,-17 -186,-41 -240,-57 -16,-5 -21,31 -7,34 37,7 85,21 94,41 24,48 25,61 13,120 -8,43 -113,583 -121,623 -21,109 -47,142 -86,161 -24,11 -71,11 -105,4 -16,-3 -24,29 -6,32 56,11 148,26 192,34 44,9 99,19 152,30 16,3 23,-25 6,-29 -17,-5 -33,-10 -63,-20 -62,-21 -71,-69 -51,-172l129 -664c0,0 496,930 487,978 -3,18 48,28 52,10 9,-44 144,-741 152,-781 21,-109 48,-142 86,-161 23,-11 71,-11 105,-4zm-1525 756c18,2 21,-28 3,-30 -28,-3 -129,-19 -133,-26 -4,-8 15,-195 41,-483 27,-300 47,-446 59,-460 9,-11 92,-1 122,2 18,2 19,-27 3,-28 -33,-3 -130,-12 -202,-18 -72,-7 -185,-17 -208,-19 -13,-1 -16,27 -3,28 22,2 110,12 120,20 7,7 -22,295 -37,455 -22,236 -46,475 -60,489 -7,7 -95,5 -124,2 -18,-2 -21,28 -3,30 42,4 151,14 220,20 69,6 178,16 202,18zm-888 -586c-2,329 -152,499 -449,496 -34,0 -87,-2 -107,-2 0,-27 2,-258 3,-477 2,-218 6,-461 15,-497 21,0 45,-1 66,-1 270,2 473,108 471,480zm156 -20c2,-351 -247,-489 -523,-488 -74,1 -192,3 -254,4 -62,1 -185,3 -218,3 -17,0 -17,28 0,29 33,0 123,-5 140,4 6,5 4,236 3,492 -2,350 -6,441 -15,455 -8,13 -86,13 -140,13 -16,0 -17,30 0,30 44,0 128,1 210,1 83,1 170,6 206,7 401,13 590,-208 592,-550zm-1527 66c39,326 -88,514 -383,549 -34,4 -87,9 -106,11 -3,-27 -31,-256 -57,-474 -26,-216 -52,-458 -47,-495 21,-2 44,-7 65,-9 268,-32 483,48 528,417zm152 -40c-42,-349 -307,-454 -581,-418 -73,10 -190,27 -251,36 -61,9 -183,27 -216,30 -16,2 -13,30 3,28 33,-4 121,-21 139,-14 7,4 34,233 65,488 42,347 50,438 42,453 -6,14 -83,24 -137,30 -16,2 -13,32 4,30 43,-5 127,-15 209,-25 82,-10 169,-16 205,-19 399,-37 559,-280 518,-620zm-1300 475c-2,-12 -31,-7 -30,5 7,69 10,157 -33,210 -42,53 -149,83 -317,127 -102,26 -141,-35 -165,-128l-81 -312c0,0 76,-26 123,-38 139,-36 184,-2 235,135 5,13 38,4 33,-9 -48,-136 -70,-279 -102,-401 -3,-13 -35,-5 -32,8 45,174 24,194 -116,230 -60,15 -125,31 -152,35l-106 -430c43,-13 127,-36 191,-52 231,-60 309,-10 346,142 4,17 34,5 32,-8 -12,-64 -28,-149 -42,-222 -5,-27 -11,-30 -35,-23 -26,7 -279,80 -520,142 -71,18 -187,48 -238,61 -20,5 -13,33 7,28 46,-12 90,-17 105,-12 16,7 85,277 125,433 59,230 115,458 108,477 -4,14 -60,32 -106,44 -22,6 -16,35 6,29 49,-13 131,-34 198,-51 295,-76 529,-125 610,-157 0,0 -31,-158 -46,-261zm-1449 -373c23,-11 6,-39 -14,-30 -55,27 -97,50 -152,76 -54,25 -78,36 -102,48 -23,11 -11,37 12,26 54,-25 105,-42 129,10 18,38 22,61 26,113l55 625c0,0 -311,-315 -521,-532 -34,-34 -16,-59 58,-93 26,-12 13,-43 -14,-30 -30,14 -109,51 -158,74 -38,18 -87,41 -154,72 -18,8 -11,41 13,31 48,-22 81,-26 111,4 22,21 44,44 66,67 0,13 57,661 57,661 0,0 -311,-315 -521,-532 -34,-34 -18,-63 56,-97 26,-12 15,-39 -12,-26 -30,14 -109,51 -158,74 -38,18 -88,39 -156,68 -18,7 -10,41 13,31 48,-22 82,-22 113,8 227,235 528,532 699,714 7,8 37,-6 35,-16 -29,-205 -57,-490 -75,-831 206,210 440,442 582,594 7,8 37,-6 35,-16 -24,-164 -37,-267 -58,-571 -29,-424 -45,-482 34,-519z"/>
  <path class="fil0" d="M6694 5831c-18,-23 -47,-46 -109,-45 -90,1 -181,134 -216,314l-12 65 -74 0c-18,0 -21,24 -3,24 23,0 74,2 74,2 0,0 -19,101 -26,130 -22,126 -31,199 -53,321 -35,193 -43,210 -102,191 -40,-12 -52,-18 -62,19 -6,21 4,42 30,46 98,12 190,-119 228,-302 16,-78 35,-169 49,-258 12,-60 28,-145 28,-145 0,0 67,2 95,3 20,1 25,-32 8,-32l-99 0 23 -127c32,-179 57,-219 89,-222 19,-1 32,22 40,39 27,56 45,66 61,66 14,0 61,-52 32,-90zm-606 480c-2,166 -82,326 -175,316 -70,-8 -81,-59 -81,-163 2,-171 78,-326 173,-322 74,3 84,68 84,168zm101 16c1,-126 -62,-202 -161,-208 -199,-13 -296,184 -297,313 -2,144 61,207 164,219 186,22 294,-169 295,-324z"/>
  <polygon class="fil0" points="4103,6430 5422,6430 5422,6364 4103,6364 "/>
  <polygon class="fil0" points="6828,6430 8147,6430 8147,6364 6828,6364 "/>
 </g>
</svg>
